<svg xmlns="http://www.w3.org/2000/svg" xmlns:xlink="http://www.w3.org/1999/xlink" width="1080" zoomAndPan="magnify" viewBox="0 0 810 225" height="300" preserveAspectRatio="xMidYMid meet" version="1.0"><defs><g/><clipPath id="78393325f9"><path d="M 0 0 L 810 0 L 810 224.269531 L 0 224.269531 Z M 0 0 " clip-rule="nonzero"/></clipPath><clipPath id="955603436b"><path d="M 27 0 L 783 0 C 790.160156 0 797.027344 2.84375 802.09375 7.90625 C 807.15625 12.972656 810 19.839844 810 27 L 810 197.269531 C 810 204.429688 807.15625 211.296875 802.09375 216.363281 C 797.027344 221.425781 790.160156 224.269531 783 224.269531 L 27 224.269531 C 12.089844 224.269531 0 212.183594 0 197.269531 L 0 27 C 0 12.089844 12.089844 0 27 0 Z M 27 0 " clip-rule="nonzero"/></clipPath><clipPath id="99b25ab0ff"><path d="M 0 0 L 810 0 L 810 224.269531 L 0 224.269531 Z M 0 0 " clip-rule="nonzero"/></clipPath><clipPath id="8b3d3f2fcf"><path d="M 27 0 L 783 0 C 790.160156 0 797.027344 2.84375 802.09375 7.90625 C 807.15625 12.972656 810 19.839844 810 27 L 810 197.269531 C 810 204.429688 807.15625 211.296875 802.09375 216.363281 C 797.027344 221.425781 790.160156 224.269531 783 224.269531 L 27 224.269531 C 12.089844 224.269531 0 212.183594 0 197.269531 L 0 27 C 0 12.089844 12.089844 0 27 0 Z M 27 0 " clip-rule="nonzero"/></clipPath><clipPath id="ef611871dc"><rect x="0" width="810" y="0" height="225"/></clipPath><clipPath id="93f83842ef"><path d="M 52.160156 36.644531 L 229.910156 36.644531 L 229.910156 186.644531 L 52.160156 186.644531 Z M 52.160156 36.644531 " clip-rule="nonzero"/></clipPath><clipPath id="575b971693"><path d="M 20 1 L 177 1 L 177 150.644531 L 20 150.644531 Z M 20 1 " clip-rule="nonzero"/></clipPath><clipPath id="44248405f5"><path d="M 0.160156 16 L 64 16 L 64 84 L 0.160156 84 Z M 0.160156 16 " clip-rule="nonzero"/></clipPath><clipPath id="8fcf8d4840"><rect x="0" width="178" y="0" height="151"/></clipPath><clipPath id="5dbd86bb6a"><rect x="0" width="176" y="0" height="43"/></clipPath></defs><g clip-path="url(#78393325f9)"><g clip-path="url(#955603436b)"><g transform="matrix(1, 0, 0, 1, 0, -0.000000000000008531)"><g clip-path="url(#ef611871dc)"><g clip-path="url(#99b25ab0ff)"><g clip-path="url(#8b3d3f2fcf)"><path fill="#ffffff" d="M 0 0 L 810.351562 0 L 810.351562 224.269531 L 0 224.269531 Z M 0 0 " fill-opacity="1" fill-rule="nonzero"/></g></g></g></g></g></g><g clip-path="url(#93f83842ef)"><g transform="matrix(1, 0, 0, 1, 52, 36)"><g clip-path="url(#8fcf8d4840)"><g clip-path="url(#575b971693)"><path fill="#042438" d="M 65.730469 27.644531 C 65.730469 19.796875 59.347656 13.414062 51.503906 13.414062 C 43.65625 13.414062 37.273438 19.796875 37.273438 27.644531 C 37.273438 35.492188 43.65625 41.875 51.503906 41.875 C 59.347656 41.875 65.730469 35.492188 65.730469 27.644531 Z M 174.328125 63.988281 C 171.484375 70.398438 166.742188 74.855469 160.609375 76.867188 C 153.640625 79.160156 145.90625 78.449219 138.832031 74.878906 C 135.285156 73.082031 132.019531 70.800781 128.710938 68.417969 C 125.488281 66.097656 122.191406 63.605469 118.917969 61.011719 C 118.796875 60.914062 118.699219 60.800781 118.628906 60.675781 C 108.742188 54.066406 97.214844 50.574219 85.273438 50.574219 C 78.234375 50.574219 71.347656 51.777344 64.792969 54.15625 L 64.792969 57.28125 L 102.15625 57.28125 L 102.15625 84.601562 L 64.792969 84.601562 L 64.792969 123.929688 L 36.761719 123.929688 L 36.761719 84.601562 L 31.125 84.601562 C 27.191406 92.757812 25.199219 101.519531 25.199219 110.648438 C 25.199219 124.847656 30.242188 138.621094 39.402344 149.4375 L 38.289062 150.554688 C 37.640625 150.007812 36.984375 149.429688 36.335938 148.832031 L 36.289062 148.785156 C 25.800781 137.378906 20.027344 122.5625 20.027344 107.058594 C 20.027344 98.902344 21.59375 90.976562 24.683594 83.507812 C 28.132812 75.167969 33.503906 67.535156 40.210938 61.4375 C 46.949219 55.304688 55.097656 50.675781 63.773438 48.046875 C 69.550781 46.292969 75.578125 45.402344 81.6875 45.402344 C 96.535156 45.402344 110.875 50.753906 122.074219 60.476562 C 125.324219 63.011719 128.542969 65.410156 131.640625 67.597656 C 135.257812 70.15625 138.367188 72.160156 141.769531 73.644531 C 149.414062 76.972656 158.433594 76.472656 164.742188 72.371094 C 169.3125 69.398438 172.800781 63.621094 174.074219 56.914062 C 175.242188 50.777344 174.695312 43.492188 172.574219 36.925781 C 167.804688 22.132812 152.660156 13.796875 144.058594 10.140625 C 130.980469 4.585938 115.902344 2.464844 100.449219 4.003906 C 90.253906 5.015625 76.078125 8.410156 66.136719 18.75 C 67.71875 21.34375 68.632812 24.386719 68.632812 27.644531 C 68.632812 37.089844 60.945312 44.773438 51.503906 44.773438 C 42.058594 44.773438 34.375 37.089844 34.375 27.644531 C 34.375 18.199219 42.058594 10.515625 51.503906 10.515625 C 56.828125 10.515625 61.59375 12.957031 64.738281 16.78125 C 65.75 15.746094 66.789062 14.773438 67.839844 13.894531 C 77.023438 6.210938 90.179688 1.84375 105.886719 1.257812 C 122.660156 0.636719 138.425781 4.03125 151.484375 11.078125 C 158.257812 14.734375 163.867188 19.167969 168.15625 24.257812 C 172.640625 29.582031 175.4375 36.035156 176.46875 43.441406 C 177.574219 51.382812 176.851562 58.296875 174.328125 63.988281 " fill-opacity="1" fill-rule="nonzero"/></g><g clip-path="url(#44248405f5)"><path fill="#65b3ed" d="M 62.414062 27.644531 C 62.414062 33.671875 57.527344 38.554688 51.503906 38.554688 C 45.476562 38.554688 40.59375 33.671875 40.59375 27.644531 C 40.59375 21.617188 45.476562 16.730469 51.503906 16.730469 C 57.527344 16.730469 62.414062 21.617188 62.414062 27.644531 Z M 64 42.132812 L 64 44.246094 C 54.003906 46.617188 44.960938 51.453125 37.550781 58.078125 L 37.550781 40.742188 C 41.042969 44.460938 46 46.78125 51.503906 46.78125 C 56.28125 46.78125 60.648438 45.03125 64 42.132812 Z M 0.1875 83.8125 L 20.472656 83.8125 C 23.890625 73.804688 29.835938 64.96875 37.550781 58.074219 L 0.1875 58.074219 L 0.1875 83.8125 " fill-opacity="1" fill-rule="nonzero"/></g></g></g></g><g fill="#65b3ed" fill-opacity="1"><g transform="translate(168.067389, 133.386962)"><g><path d="M 14.515625 0 L 14.515625 -37.53125 L 1.703125 -37.53125 L 1.703125 -44 L 35.453125 -44 L 35.453125 -37.53125 L 22.5625 -37.53125 L 22.5625 0 Z M 14.515625 0 "/></g></g></g><g fill="#65b3ed" fill-opacity="1"><g transform="translate(214.961682, 133.386962)"><g><path d="M 4.28125 0 L 4.28125 -44 L 20.421875 -44 C 23.941406 -44 26.84375 -43.398438 29.125 -42.203125 C 31.414062 -41.015625 33.125 -39.40625 34.25 -37.375 C 35.382812 -35.34375 35.953125 -33.085938 35.953125 -30.609375 C 35.953125 -27.929688 35.25 -25.476562 33.84375 -23.25 C 32.445312 -21.03125 30.257812 -19.421875 27.28125 -18.421875 L 36.390625 0 L 27.15625 0 L 18.984375 -17.34375 L 12.328125 -17.34375 L 12.328125 0 Z M 12.328125 -23.265625 L 19.921875 -23.265625 C 22.609375 -23.265625 24.578125 -23.910156 25.828125 -25.203125 C 27.085938 -26.503906 27.71875 -28.222656 27.71875 -30.359375 C 27.71875 -32.453125 27.097656 -34.128906 25.859375 -35.390625 C 24.628906 -36.648438 22.628906 -37.28125 19.859375 -37.28125 L 12.328125 -37.28125 Z M 12.328125 -23.265625 "/></g></g></g><g fill="#65b3ed" fill-opacity="1"><g transform="translate(263.86748, 133.386962)"><g><path d="M 21.25 0.75 C 18.019531 0.75 15.101562 0.113281 12.5 -1.15625 C 9.90625 -2.4375 7.84375 -4.375 6.3125 -6.96875 C 4.78125 -9.570312 4.015625 -12.863281 4.015625 -16.84375 L 4.015625 -44 L 12.0625 -44 L 12.0625 -16.78125 C 12.0625 -13.34375 12.890625 -10.785156 14.546875 -9.109375 C 16.203125 -7.429688 18.5 -6.59375 21.4375 -6.59375 C 24.320312 -6.59375 26.601562 -7.429688 28.28125 -9.109375 C 29.957031 -10.785156 30.796875 -13.34375 30.796875 -16.78125 L 30.796875 -44 L 38.84375 -44 L 38.84375 -16.84375 C 38.84375 -12.863281 38.046875 -9.570312 36.453125 -6.96875 C 34.859375 -4.375 32.734375 -2.4375 30.078125 -1.15625 C 27.421875 0.113281 24.476562 0.75 21.25 0.75 Z M 21.25 0.75 "/></g></g></g><g fill="#65b3ed" fill-opacity="1"><g transform="translate(316.419113, 133.386962)"><g><path d="M 4.28125 0 L 4.28125 -44 L 33 -44 L 33 -37.53125 L 12.328125 -37.53125 L 12.328125 -25.453125 L 31.109375 -25.453125 L 31.109375 -19.171875 L 12.328125 -19.171875 L 12.328125 -6.46875 L 33 -6.46875 L 33 0 Z M 4.28125 0 "/></g></g></g><g fill="#042438" fill-opacity="1"><g transform="translate(362.504885, 133.386962)"><g><path d="M 4.65625 0 L 4.65625 -44 L 19.109375 -44 C 22.546875 -44 25.375 -43.429688 27.59375 -42.296875 C 29.8125 -41.171875 31.453125 -39.644531 32.515625 -37.71875 C 33.585938 -35.789062 34.125 -33.609375 34.125 -31.171875 C 34.125 -28.785156 33.597656 -26.628906 32.546875 -24.703125 C 31.503906 -22.773438 29.875 -21.234375 27.65625 -20.078125 C 25.4375 -18.929688 22.585938 -18.359375 19.109375 -18.359375 L 9.9375 -18.359375 L 9.9375 0 Z M 9.9375 -22.8125 L 18.984375 -22.8125 C 22.503906 -22.8125 25.007812 -23.554688 26.5 -25.046875 C 27.988281 -26.535156 28.734375 -28.578125 28.734375 -31.171875 C 28.734375 -33.816406 27.988281 -35.878906 26.5 -37.359375 C 25.007812 -38.847656 22.503906 -39.59375 18.984375 -39.59375 L 9.9375 -39.59375 Z M 9.9375 -22.8125 "/></g></g></g><g fill="#042438" fill-opacity="1"><g transform="translate(408.644864, 133.386962)"><g><path d="M 4.65625 0 L 4.65625 -44 L 18.859375 -44 C 22.296875 -44 25.101562 -43.429688 27.28125 -42.296875 C 29.457031 -41.171875 31.066406 -39.625 32.109375 -37.65625 C 33.160156 -35.6875 33.6875 -33.503906 33.6875 -31.109375 C 33.6875 -28.347656 32.941406 -25.851562 31.453125 -23.625 C 29.972656 -21.40625 27.660156 -19.835938 24.515625 -18.921875 L 34.125 0 L 27.90625 0 L 18.984375 -18.171875 L 9.9375 -18.171875 L 9.9375 0 Z M 9.9375 -22.3125 L 18.484375 -22.3125 C 21.878906 -22.3125 24.347656 -23.128906 25.890625 -24.765625 C 27.441406 -26.398438 28.21875 -28.492188 28.21875 -31.046875 C 28.21875 -33.648438 27.453125 -35.710938 25.921875 -37.234375 C 24.398438 -38.765625 21.898438 -39.53125 18.421875 -39.53125 L 9.9375 -39.53125 Z M 9.9375 -22.3125 "/></g></g></g><g fill="#042438" fill-opacity="1"><g transform="translate(455.66487, 133.386962)"><g><path d="M 4.65625 0 L 4.65625 -44 L 31.875 -44 L 31.875 -39.671875 L 9.9375 -39.671875 L 9.9375 -24.328125 L 29.984375 -24.328125 L 29.984375 -20.046875 L 9.9375 -20.046875 L 9.9375 -4.34375 L 31.875 -4.34375 L 31.875 0 Z M 4.65625 0 "/></g></g></g><g fill="#042438" fill-opacity="1"><g transform="translate(500.861958, 133.386962)"><g><path d="M 23.953125 0.75 C 19.628906 0.75 15.90625 -0.203125 12.78125 -2.109375 C 9.664062 -4.015625 7.25 -6.675781 5.53125 -10.09375 C 3.8125 -13.507812 2.953125 -17.476562 2.953125 -22 C 2.953125 -26.488281 3.8125 -30.4375 5.53125 -33.84375 C 7.25 -37.257812 9.664062 -39.929688 12.78125 -41.859375 C 15.90625 -43.785156 19.628906 -44.75 23.953125 -44.75 C 28.984375 -44.75 33.078125 -43.546875 36.234375 -41.140625 C 39.398438 -38.734375 41.421875 -35.367188 42.296875 -31.046875 L 36.453125 -31.046875 C 35.785156 -33.773438 34.414062 -35.96875 32.34375 -37.625 C 30.269531 -39.28125 27.472656 -40.109375 23.953125 -40.109375 C 20.804688 -40.109375 18.054688 -39.382812 15.703125 -37.9375 C 13.359375 -36.488281 11.546875 -34.410156 10.265625 -31.703125 C 8.992188 -29.003906 8.359375 -25.769531 8.359375 -22 C 8.359375 -18.226562 8.992188 -14.988281 10.265625 -12.28125 C 11.546875 -9.582031 13.359375 -7.507812 15.703125 -6.0625 C 18.054688 -4.613281 20.804688 -3.890625 23.953125 -3.890625 C 27.472656 -3.890625 30.269531 -4.695312 32.34375 -6.3125 C 34.414062 -7.925781 35.785156 -10.078125 36.453125 -12.765625 L 42.296875 -12.765625 C 41.421875 -8.523438 39.398438 -5.210938 36.234375 -2.828125 C 33.078125 -0.441406 28.984375 0.75 23.953125 0.75 Z M 23.953125 0.75 "/></g></g></g><g fill="#042438" fill-opacity="1"><g transform="translate(555.865122, 133.386962)"><g><path d="M 4.65625 0 L 4.65625 -44 L 9.9375 -44 L 9.9375 0 Z M 4.65625 0 "/></g></g></g><g fill="#042438" fill-opacity="1"><g transform="translate(580.19288, 133.386962)"><g><path d="M 18.671875 0.75 C 15.441406 0.75 12.628906 0.164062 10.234375 -1 C 7.847656 -2.175781 6.003906 -3.8125 4.703125 -5.90625 C 3.410156 -8 2.765625 -10.429688 2.765625 -13.203125 L 8.296875 -13.203125 C 8.296875 -11.484375 8.691406 -9.898438 9.484375 -8.453125 C 10.285156 -7.003906 11.453125 -5.847656 12.984375 -4.984375 C 14.515625 -4.128906 16.410156 -3.703125 18.671875 -3.703125 C 21.640625 -3.703125 23.941406 -4.414062 25.578125 -5.84375 C 27.210938 -7.269531 28.03125 -9.050781 28.03125 -11.1875 C 28.03125 -12.945312 27.648438 -14.359375 26.890625 -15.421875 C 26.140625 -16.492188 25.125 -17.363281 23.84375 -18.03125 C 22.570312 -18.707031 21.109375 -19.296875 19.453125 -19.796875 C 17.796875 -20.304688 16.066406 -20.875 14.265625 -21.5 C 10.867188 -22.675781 8.351562 -24.128906 6.71875 -25.859375 C 5.09375 -27.597656 4.28125 -29.875 4.28125 -32.6875 C 4.238281 -35.03125 4.78125 -37.113281 5.90625 -38.9375 C 7.039062 -40.757812 8.644531 -42.179688 10.71875 -43.203125 C 12.789062 -44.234375 15.253906 -44.75 18.109375 -44.75 C 20.910156 -44.75 23.347656 -44.222656 25.421875 -43.171875 C 27.492188 -42.128906 29.109375 -40.6875 30.265625 -38.84375 C 31.421875 -37 32.019531 -34.90625 32.0625 -32.5625 L 26.53125 -32.5625 C 26.53125 -33.78125 26.210938 -34.984375 25.578125 -36.171875 C 24.953125 -37.367188 24 -38.34375 22.71875 -39.09375 C 21.445312 -39.851562 19.847656 -40.234375 17.921875 -40.234375 C 15.523438 -40.273438 13.5625 -39.664062 12.03125 -38.40625 C 10.507812 -37.144531 9.75 -35.40625 9.75 -33.1875 C 9.75 -31.300781 10.28125 -29.851562 11.34375 -28.84375 C 12.414062 -27.84375 13.914062 -27.015625 15.84375 -26.359375 C 17.769531 -25.710938 19.988281 -24.972656 22.5 -24.140625 C 24.59375 -23.378906 26.476562 -22.492188 28.15625 -21.484375 C 29.832031 -20.484375 31.140625 -19.1875 32.078125 -17.59375 C 33.023438 -16.007812 33.5 -13.976562 33.5 -11.5 C 33.5 -9.40625 32.953125 -7.425781 31.859375 -5.5625 C 30.773438 -3.695312 29.132812 -2.175781 26.9375 -1 C 24.738281 0.164062 21.984375 0.75 18.671875 0.75 Z M 18.671875 0.75 "/></g></g></g><g fill="#042438" fill-opacity="1"><g transform="translate(626.269996, 133.386962)"><g><path d="M 4.65625 0 L 4.65625 -44 L 9.9375 -44 L 9.9375 0 Z M 4.65625 0 "/></g></g></g><g fill="#042438" fill-opacity="1"><g transform="translate(650.597799, 133.386962)"><g><path d="M 24.640625 0.75 C 20.328125 0.75 16.546875 -0.203125 13.296875 -2.109375 C 10.046875 -4.015625 7.507812 -6.6875 5.6875 -10.125 C 3.863281 -13.5625 2.953125 -17.519531 2.953125 -22 C 2.953125 -26.488281 3.863281 -30.4375 5.6875 -33.84375 C 7.507812 -37.257812 10.046875 -39.929688 13.296875 -41.859375 C 16.546875 -43.785156 20.328125 -44.75 24.640625 -44.75 C 28.992188 -44.75 32.796875 -43.785156 36.046875 -41.859375 C 39.296875 -39.929688 41.820312 -37.257812 43.625 -33.84375 C 45.425781 -30.4375 46.328125 -26.488281 46.328125 -22 C 46.328125 -17.519531 45.425781 -13.5625 43.625 -10.125 C 41.820312 -6.6875 39.296875 -4.015625 36.046875 -2.109375 C 32.796875 -0.203125 28.992188 0.75 24.640625 0.75 Z M 24.640625 -3.890625 C 27.867188 -3.890625 30.707031 -4.613281 33.15625 -6.0625 C 35.601562 -7.507812 37.507812 -9.582031 38.875 -12.28125 C 40.238281 -14.988281 40.921875 -18.226562 40.921875 -22 C 40.921875 -25.769531 40.238281 -28.992188 38.875 -31.671875 C 37.507812 -34.359375 35.601562 -36.425781 33.15625 -37.875 C 30.707031 -39.320312 27.867188 -40.046875 24.640625 -40.046875 C 21.410156 -40.046875 18.570312 -39.320312 16.125 -37.875 C 13.675781 -36.425781 11.769531 -34.359375 10.40625 -31.671875 C 9.039062 -28.992188 8.359375 -25.769531 8.359375 -22 C 8.359375 -18.226562 9.039062 -14.988281 10.40625 -12.28125 C 11.769531 -9.582031 13.675781 -7.507812 16.125 -6.0625 C 18.570312 -4.613281 21.410156 -3.890625 24.640625 -3.890625 Z M 24.640625 -3.890625 "/></g></g></g><g fill="#042438" fill-opacity="1"><g transform="translate(709.623951, 133.386962)"><g><path d="M 4.65625 0 L 4.65625 -44 L 9.9375 -44 L 33.375 -8.734375 L 33.375 -44 L 38.65625 -44 L 38.65625 0 L 33.375 0 L 9.9375 -35.265625 L 9.9375 0 Z M 4.65625 0 "/></g></g></g><g transform="matrix(1, 0, 0, 1, 317, 147)"><g clip-path="url(#5dbd86bb6a)"><g fill="#65b3ed" fill-opacity="1"><g transform="translate(0.140827, 32.12218)"><g><path d="M 2.421875 0 L 2.421875 -22.96875 L 5.640625 -22.96875 L 13.90625 -6.953125 L 22.109375 -22.96875 L 25.359375 -22.96875 L 25.359375 0 L 22.609375 0 L 22.609375 -18.046875 L 14.9375 -3.28125 L 12.859375 -3.28125 L 5.1875 -18.015625 L 5.1875 0 Z M 2.421875 0 "/></g></g></g><g fill="#65b3ed" fill-opacity="1"><g transform="translate(33.022073, 32.12218)"><g><path d="M 2.421875 0 L 2.421875 -22.96875 L 16.640625 -22.96875 L 16.640625 -20.703125 L 5.1875 -20.703125 L 5.1875 -12.703125 L 15.65625 -12.703125 L 15.65625 -10.46875 L 5.1875 -10.46875 L 5.1875 -2.265625 L 16.640625 -2.265625 L 16.640625 0 Z M 2.421875 0 "/></g></g></g><g fill="#65b3ed" fill-opacity="1"><g transform="translate(56.616741, 32.12218)"><g><path d="M 2.421875 0 L 2.421875 -22.96875 L 9.484375 -22.96875 C 13.523438 -22.96875 16.503906 -21.9375 18.421875 -19.875 C 20.335938 -17.820312 21.296875 -15.003906 21.296875 -11.421875 C 21.296875 -7.898438 20.335938 -5.113281 18.421875 -3.0625 C 16.503906 -1.019531 13.523438 0 9.484375 0 Z M 5.1875 -2.296875 L 9.421875 -2.296875 C 11.648438 -2.296875 13.425781 -2.660156 14.75 -3.390625 C 16.070312 -4.128906 17.015625 -5.179688 17.578125 -6.546875 C 18.148438 -7.910156 18.4375 -9.535156 18.4375 -11.421875 C 18.4375 -13.347656 18.148438 -15 17.578125 -16.375 C 17.015625 -17.75 16.070312 -18.804688 14.75 -19.546875 C 13.425781 -20.296875 11.648438 -20.671875 9.421875 -20.671875 L 5.1875 -20.671875 Z M 5.1875 -2.296875 "/></g></g></g><g fill="#65b3ed" fill-opacity="1"><g transform="translate(84.542958, 32.12218)"><g><path d="M 2.421875 0 L 2.421875 -22.96875 L 5.1875 -22.96875 L 5.1875 0 Z M 2.421875 0 "/></g></g></g><g fill="#65b3ed" fill-opacity="1"><g transform="translate(97.243128, 32.12218)"><g><path d="M 12.5 0.390625 C 10.25 0.390625 8.304688 -0.101562 6.671875 -1.09375 C 5.046875 -2.09375 3.785156 -3.484375 2.890625 -5.265625 C 1.992188 -7.046875 1.546875 -9.117188 1.546875 -11.484375 C 1.546875 -13.828125 1.992188 -15.890625 2.890625 -17.671875 C 3.785156 -19.453125 5.046875 -20.84375 6.671875 -21.84375 C 8.304688 -22.851562 10.25 -23.359375 12.5 -23.359375 C 15.125 -23.359375 17.257812 -22.726562 18.90625 -21.46875 C 20.5625 -20.21875 21.617188 -18.460938 22.078125 -16.203125 L 19.03125 -16.203125 C 18.675781 -17.628906 17.957031 -18.773438 16.875 -19.640625 C 15.800781 -20.503906 14.34375 -20.9375 12.5 -20.9375 C 10.863281 -20.9375 9.429688 -20.554688 8.203125 -19.796875 C 6.972656 -19.046875 6.023438 -17.960938 5.359375 -16.546875 C 4.691406 -15.140625 4.359375 -13.453125 4.359375 -11.484375 C 4.359375 -9.515625 4.691406 -7.820312 5.359375 -6.40625 C 6.023438 -5 6.972656 -3.914062 8.203125 -3.15625 C 9.429688 -2.40625 10.863281 -2.03125 12.5 -2.03125 C 14.34375 -2.03125 15.800781 -2.453125 16.875 -3.296875 C 17.957031 -4.140625 18.675781 -5.257812 19.03125 -6.65625 L 22.078125 -6.65625 C 21.617188 -4.445312 20.5625 -2.71875 18.90625 -1.46875 C 17.257812 -0.226562 15.125 0.390625 12.5 0.390625 Z M 12.5 0.390625 "/></g></g></g><g fill="#65b3ed" fill-opacity="1"><g transform="translate(125.956895, 32.12218)"><g><path d="M 0.984375 0 L 9.453125 -22.96875 L 12.375 -22.96875 L 20.796875 0 L 17.890625 0 L 15.78125 -5.90625 L 6 -5.90625 L 3.875 0 Z M 6.828125 -8.140625 L 14.96875 -8.140625 L 10.890625 -19.484375 Z M 6.828125 -8.140625 "/></g></g></g><g fill="#65b3ed" fill-opacity="1"><g transform="translate(152.833033, 32.12218)"><g><path d="M 2.421875 0 L 2.421875 -22.96875 L 5.1875 -22.96875 L 5.1875 -2.203125 L 15.875 -2.203125 L 15.875 0 Z M 2.421875 0 "/></g></g></g></g></g></svg>